<svg id="Layer_1" data-name="Layer 1" xmlns="http://www.w3.org/2000/svg" viewBox="0 0 167.5 86.7"><title>volumentalArtboard 1</title><polygon points="63.63 33.33 32.16 46.88 32.16 37.41 55.31 28.49 32.16 19.57 32.16 10.45 63.63 24.16 63.63 33.33 63.63 33.33"/><polygon points="84.2 0 84.2 57.33 75.12 57.33 75.12 0 84.2 0 84.2 0"/><path d="M109.31,28.64c0,9,2.08,12.7,7,12.7s6.94-3.71,6.94-12.7S121.12,16,116.31,16s-7,3.65-7,12.65Zm23.89,0c0,12.87-6.07,20-16.89,20s-17-7.14-17-20,6.07-20,17-20,16.89,7.14,16.89,20Z"/><path d="M2.61,73l3.3,10.36L9.25,73h2.59L7.18,86.41H4.59L0,73Z"/><path d="M23.57,72.72a6.65,6.65,0,0,1,2.49.45A5.17,5.17,0,0,1,28,74.48a7.32,7.32,0,0,1,1.71,5.21A7.51,7.51,0,0,1,28,85a5.81,5.81,0,0,1-4.45,1.74,5.71,5.71,0,0,1-4.42-1.78,7.36,7.36,0,0,1-1.72-5.23,7.33,7.33,0,0,1,1.72-5.25A5.76,5.76,0,0,1,23.57,72.72Zm3.59,7a5.69,5.69,0,0,0-1-3.56,3.14,3.14,0,0,0-2.62-1.25,3.19,3.19,0,0,0-2.63,1.25,5.69,5.69,0,0,0-1,3.56,5.56,5.56,0,0,0,1,3.53,3.2,3.2,0,0,0,2.63,1.23,3.15,3.15,0,0,0,2.62-1.23A5.56,5.56,0,0,0,27.16,79.72Z"/><path d="M39.27,84.28h5.58v2.13h-8V73h2.46Z"/><path d="M53.56,73v8.35a3,3,0,0,0,.84,2.38,3.68,3.68,0,0,0,4.37,0,3,3,0,0,0,.84-2.38V73h2.46v8.35a5.26,5.26,0,0,1-1.44,4,5.58,5.58,0,0,1-4.05,1.4,5.58,5.58,0,0,1-4-1.4,5.26,5.26,0,0,1-1.44-4V73Z"/><path d="M73.41,73l3.72,8,3.72-8h3.4V86.41H81.76V76.22l-3.84,8.72H76.31l-4-9V86.41H69.88V73Z"/><path d="M92.29,73H101V75.1H94.75v3.53h5.87v2.11H94.75v3.54H101v2.13H92.29Z"/><path d="M111.37,73l6,9.51V73h2.47V86.41H117.3l-6.16-9.84v9.84h-2.46V73Z"/><path d="M126.05,73h10.86V75.1h-4.2V86.41h-2.46V75.1h-4.2Z"/><path d="M145.34,73h3.09l4.45,13.42h-2.61l-.94-2.9h-5l-1,2.9h-2.61Zm-.41,8.68h3.8l-1.88-5.76Z"/><path d="M161.92,84.28h5.58v2.13h-8V73h2.46Z"/></svg>